<?xml version="1.0" standalone="no"?>
<!DOCTYPE svg PUBLIC "-//W3C//DTD SVG 20010904//EN"
 "http://www.w3.org/TR/2001/REC-SVG-20010904/DTD/svg10.dtd">
<svg version="1.0" xmlns="http://www.w3.org/2000/svg"
 width="120.000000pt" height="120.000000pt" viewBox="0 0 120.000000 120.000000"
 preserveAspectRatio="xMidYMid meet">
<metadata>
Created by potrace 1.14, written by Peter Selinger 2001-2017
</metadata>
<g transform="translate(0.000000,120.000000) scale(0.100000,-0.100000)"
fill="#000000" stroke="none">
<path d="M768 1153 l-3 -48 -101 -3 -101 -3 -7 -37 c-3 -20 -6 -89 -6 -153 0
-113 1 -117 25 -133 30 -20 64 -20 89 -1 27 20 92 20 100 -1 3 -9 6 -41 6 -72
0 -52 3 -58 27 -69 62 -29 82 -11 91 84 l7 68 50 -1 c28 0 65 -7 83 -15 42
-18 64 -5 75 47 12 54 3 223 -13 257 -13 26 -15 27 -102 27 l-89 0 -21 50
c-20 49 -21 50 -64 50 l-43 0 -3 -47z m-2 -187 c12 -49 2 -61 -46 -61 -42 0
-45 2 -48 28 -6 46 4 57 47 57 35 0 42 -4 47 -24z m222 -24 l3 -43 -48 3 c-44
3 -48 5 -51 31 -6 49 3 58 50 55 43 -3 43 -3 46 -46z"/>
<path d="M97 1114 c-4 -4 -7 -62 -7 -130 l0 -122 25 -6 c29 -7 111 17 137 41
12 10 21 12 35 5 16 -9 99 -99 146 -159 21 -27 39 -29 57 -8 10 12 -1 31 -69
114 -108 133 -121 170 -58 171 29 0 14 24 -19 31 -26 6 -25 7 11 8 49 2 68 13
63 37 -3 17 -16 19 -159 22 -85 1 -158 -1 -162 -4z"/>
<path d="M308 585 c-23 -13 -26 -20 -21 -50 l6 -34 -114 -3 -114 -3 -3 -36
c-3 -34 -1 -37 46 -56 36 -15 53 -29 65 -56 9 -19 32 -58 51 -85 31 -47 33
-52 17 -65 -16 -15 -77 -44 -141 -68 -19 -7 -36 -14 -38 -15 -5 -4 30 -58 47
-71 25 -22 64 -15 150 27 45 22 89 40 96 40 7 0 51 -18 96 -40 46 -22 95 -40
110 -40 32 0 59 23 59 51 0 10 1 22 3 25 1 3 -25 17 -58 30 -86 35 -105 46
-105 62 0 12 14 37 87 160 7 12 30 30 51 40 40 18 51 46 32 81 -10 19 -20 21
-109 21 -97 0 -98 0 -111 28 -18 36 -51 72 -64 72 -6 -1 -23 -7 -38 -15z m93
-196 c19 -10 19 -10 -1 -48 -12 -20 -30 -42 -40 -49 -16 -10 -23 -7 -44 19
-14 17 -26 39 -26 50 0 32 70 50 111 28z"/>
<path d="M684 495 c-6 -16 16 -48 101 -150 58 -68 85 -106 85 -117 0 -5 -16
-8 -35 -8 -19 0 -35 -4 -35 -10 0 -5 12 -10 28 -10 40 0 60 -16 30 -23 -12 -4
-31 -7 -40 -7 -9 0 -29 -5 -44 -10 -26 -10 -26 -12 -10 -28 14 -14 41 -18 163
-20 132 -4 148 -2 160 14 19 26 17 186 -2 224 -20 38 -52 40 -66 4 -9 -26 -10
-26 -29 -9 -25 23 -48 13 -52 -22 -5 -47 -31 -38 -88 34 -115 144 -152 175
-166 138z"/>
</g>
</svg>
